<svg xmlns="http://www.w3.org/2000/svg" viewBox="0 0 360 72" fill="none" role="img" aria-label="ArtPraxis">
  <!-- APPROXIMATION — awaiting final production export.
       Visual SoT: docs/references/branding/logo/artpraxis-approved-logo-package.png.png
       Do not treat this file as approved artwork. -->
  <text x="8" y="36" font-family="Georgia, 'Times New Roman', Times, serif" font-size="34" font-weight="600" fill="#0d1b2a" letter-spacing="-0.6">ArtPraxis</text>
  <!-- Continuous paint body — right edge meets the handle -->
  <path d="M10 50.2 C52 45.8 110 44.2 168 45.6 C214 46.8 248 49.2 268.5 50.2 L269.2 55.4 C248 54.2 214 51.8 168 50.6 C110 49 52 50.4 10 54.2 Z" fill="#0d1b2a"/>
  <path d="M18 53.2 C70 50.2 130 49.4 190 50.8 C230 51.6 255 52.6 268.8 53.4" stroke="#0d1b2a" stroke-width="1.6" stroke-linecap="round" opacity="0.28"/>
  <!-- Brush group: handle overlaps stroke end -->
  <g transform="translate(262,42) rotate(-16)">
    <defs>
      <linearGradient id="ap-full-bristle" x1="22" y1="2" x2="58" y2="14" gradientUnits="userSpaceOnUse">
        <stop offset="0%" stop-color="#8b5e3c"/>
        <stop offset="55%" stop-color="#6e4a2f"/>
        <stop offset="78%" stop-color="#3a3842"/>
        <stop offset="100%" stop-color="#0d1b2a"/>
      </linearGradient>
      <linearGradient id="ap-full-ferrule" x1="14" y1="4" x2="26" y2="12" gradientUnits="userSpaceOnUse">
        <stop offset="0%" stop-color="#c4c8cc"/>
        <stop offset="45%" stop-color="#9aa0a6"/>
        <stop offset="100%" stop-color="#6f757b"/>
      </linearGradient>
    </defs>
    <path d="M0 8.2 L16.5 5.2 L18.2 12.4 L1.8 15.2 Z" fill="#1c1c1c"/>
    <path d="M15.8 4.8 L26.2 2.8 L28.2 12.6 L17.6 14.4 Z" fill="url(#ap-full-ferrule)"/>
    <path d="M17.6 6.4 L26 4.8" stroke="#c4c8cc" stroke-width="0.55" opacity="0.85"/>
    <path d="M18.2 11.2 L26.6 9.8" stroke="#6f757b" stroke-width="0.5" opacity="0.7"/>
    <path d="M26 2.4 C36 0.2 48 -0.2 58.5 3.6 C64.2 5.6 68.6 9 70.4 11.6 C67.6 13.6 60.8 15 52.8 14.6 C43.6 14.1 34.2 12.6 28.2 11.4 Z" fill="url(#ap-full-bristle)"/>
    <path d="M28.2 4 C38 1.8 49 1.6 59.5 4.8" stroke="#6e4a2f" stroke-width="0.5" opacity="0.4"/>
    <path d="M54.5 5 C61 6.4 66.2 9 69.6 11.6 C66.8 13.2 61.4 14.2 56.2 13.4 C52.6 12.8 51 9.8 52.4 7.4 C52.9 6.2 53.7 5.4 54.5 5 Z" fill="#0d1b2a" opacity="0.95"/>
  </g>
</svg>
